<svg width="667" height="324" viewBox="0 0 667 324" fill="none" xmlns="http://www.w3.org/2000/svg">
<path d="M616.458 12.2267C621.418 8.96 625.351 4.46667 629.204 0C635.618 14.52 641.471 30.2667 639.191 46.4133C638.124 51.36 636.724 56.9867 632.338 60.0533C625.471 61.1733 618.391 60.2267 611.471 61C616.017 54.0933 619.738 46.5467 621.431 38.4C616.404 45.4667 612.951 53.76 606.351 59.6133C603.751 62.4667 599.591 61.7333 596.191 62.5467C590.724 63.2667 585.978 66.1733 581.444 69.0933C577.778 57.5733 579.524 44.48 586.858 34.7467C594.204 24.3467 606.231 19.1733 616.458 12.2267Z" fill="#1E7B3E"/>
<path d="M603.018 66.2533C617.164 65.7067 631.244 63.8267 644.938 60.2C645.804 72.0933 640.911 83.2267 636.351 93.8933C630.098 107.413 619.591 119.787 605.338 125.08C595.071 128.587 583.497 125.28 576.284 117.28C592.791 108.947 610.791 101.493 622.631 86.5867C607.764 98.5333 589.698 105.72 571.351 110.373C571.098 99.88 573.444 89.16 578.951 80.16C584.031 71.8933 593.284 66.4667 603.018 66.2533Z" fill="#1E7B3E"/>
<path d="M35.2841 45.8533C42.1908 35.16 52.9375 26.64 65.4441 23.68C72.0175 22.7466 78.7375 22.84 85.3241 23.52C96.6441 25.7466 106.857 31.92 115.404 39.4933C120.817 44.4 126.004 50.9866 125.191 58.76C126.297 69.0666 111.377 77.88 103.911 69.7333C96.7908 61.3733 89.3375 52.12 78.2975 49.0266C72.1775 47.7866 65.1108 47.7733 60.0841 52.0266C47.9908 61.28 43.8841 77.5866 44.8708 92.1866C45.8708 106.813 49.9108 121.68 58.4975 133.747C65.4441 143.947 80.5641 148.467 91.4175 141.933C99.2708 137.507 103.524 128.613 104.057 119.84C97.2975 119.253 90.3641 120.68 83.7108 119.16C73.7641 114.813 74.1508 98.8933 83.0841 93.6533C87.8041 90.64 93.6041 91.8933 98.8575 91.7866C106.657 92.0666 114.591 91 122.257 92.92C125.737 93.88 128.124 97.0933 129.137 100.427C134.911 122.72 127.004 148.96 107.471 162.053C99.1775 167.893 89.0308 171.12 78.8441 170.467C66.1108 171.093 53.2175 166.44 43.9908 157.6C30.3508 145.32 24.2841 126.827 22.4041 109.04C20.7641 87.4533 23.3908 64.4266 35.2841 45.8533Z" fill="#1E7B3E"/>
<path d="M274.057 70.96C284.084 65.3733 296.404 62.7066 307.551 66.3867C316.724 69.3066 324.137 78.2533 323.711 88.12C324.084 97.3733 318.111 105.573 310.951 110.84C300.871 118.147 288.138 119.467 276.151 120.947C277.898 126.52 282.031 132.227 288.364 132.6C298.071 132.64 306.124 126.44 314.938 123.347C319.297 122.813 324.524 122.333 327.938 125.693C332.564 129.853 332.711 137.147 330.431 142.547C326.617 150.747 318.138 155.427 309.938 158.253C301.258 161.293 291.897 161.467 282.818 160.947C266.018 159.4 252.364 145.213 248.471 129.253C246.631 122.373 246.991 115.12 247.417 108.08C249.417 92.3066 260.124 78.2933 274.057 70.96ZM275.057 104.84C280.764 105.307 286.524 105.4 292.231 104.8C299.018 103.653 305.617 99.5867 308.671 93.2533C309.057 91.3333 309.351 88.9333 307.724 87.48C304.804 83.6266 299.431 84.2933 295.217 84.76C285.577 87.2 277.938 95.4666 275.057 104.84Z" fill="#1E7B3E"/>
<path d="M380.497 66.7866C388.817 64.0666 398.164 63.84 406.351 67.12C413.951 70.12 419.471 77.4667 420.711 85.48C421.737 94.7867 416.804 103.867 409.617 109.52C399.511 117.8 386.071 119.507 373.524 120.893C374.324 126.933 379.377 132.067 385.537 132.493C394.724 132.147 402.671 127.147 410.844 123.547C415.497 122.76 421.324 122.16 424.911 125.92C429.684 130.2 430.244 137.827 427.071 143.213C421.777 153.187 410.404 157.8 399.937 160.12C388.497 161.707 375.737 162.573 365.471 156.28C348.004 146.48 340.351 124.133 344.697 105.133C348.471 87.04 363.084 72.3066 380.497 66.7866ZM384.364 88.2266C378.764 92.5733 372.857 98.2133 372.431 105.76C379.111 106 386.004 106.347 392.417 104.08C397.871 102.147 403.364 98.7467 405.591 93.1467C407.084 90.04 404.671 86.48 401.857 85.1333C395.937 83.68 389.271 84.3333 384.364 88.2266Z" fill="#1E7B3E"/>
<path d="M507.071 67.36C516.511 63.9066 527.378 64.08 536.231 69.0933C547.097 75.0133 554.977 85.6266 558.551 97.3733C563.991 114.147 565.377 132.84 559.617 149.707C557.164 157.973 547.844 164.813 539.244 161.187C531.871 158.52 529.311 150.307 527.897 143.347C526.271 130.893 529.244 117.92 524.791 105.853C522.937 99.4933 516.777 93.3867 509.684 95.6266C497.884 99.24 489.964 109.6 483.751 119.667C479.177 127.467 475.631 135.84 473.004 144.48C471.124 149.973 468.671 156.547 462.551 158.4C456.697 160.813 450.244 156.787 447.524 151.587C443.484 144 442.191 135.24 442.111 126.733C441.884 115.16 441.671 103.507 443.337 92.0133C444.284 84.5466 444.884 76.6266 448.844 70.0266C452.097 64.7066 461.284 65.2533 463.551 71.2C467.484 79.92 465.937 89.84 467.871 99.0533C478.271 85.7733 490.844 73.1066 507.071 67.36Z" fill="#1E7B3E"/>
<path d="M166.551 95.1067C173.457 83.3066 181.511 69.4267 196.111 66.64C213.777 62.52 232.151 76.16 235.111 93.6266C235.777 99.64 235.737 106.507 231.484 111.307C228.111 115.68 221.777 114.627 217.017 113.827C211.791 111.093 211.764 104.467 209.777 99.6133C208.231 94.4133 203.684 88.9866 197.711 89.9066C191.764 90.8133 187.964 96.48 186.111 101.787C181.057 118.64 185.964 136.213 184.551 153.373C183.297 163.333 171.191 169.24 162.471 164.413C157.311 161.933 154.017 156.387 154.177 150.667C152.257 129.587 149.151 108.507 143.124 88.1733C141.964 84.12 140.924 79.1866 143.777 75.5733C148.844 69.5866 159.417 69.64 164.164 76.0266C168.711 81.3066 167.831 88.7733 166.551 95.1067Z" fill="#1E7B3E"/>
<path d="M41.7569 193.562C45.1569 187.255 50.3303 181.042 57.7569 179.682C64.2369 178.695 69.9969 183.389 72.9836 188.749C84.5036 208.175 84.1036 231.602 91.9169 252.375C93.3969 251.002 94.9169 249.642 96.0503 247.962C107.037 231.255 116.197 213.322 128.624 197.602C133.89 190.762 142.037 185.362 150.97 185.989C156.344 185.709 161.397 189.335 163.33 194.269C166.824 202.455 167.904 211.415 168.917 220.175C169.557 234.295 169.517 248.455 168.85 262.562C166.97 278.015 165.757 293.949 159.33 308.335C156.29 315.402 150.317 321.615 142.584 323.215C135.397 324.189 128.304 318.629 126.437 311.829C125.597 306.562 125.69 301.029 127.357 295.922C133.144 277.855 137.824 259.202 138.277 240.149C138.184 235.095 138.397 228.975 133.85 225.642C130.944 227.442 128.037 229.429 126.104 232.335C116.717 245.455 110.597 260.495 102.677 274.469C98.8236 281.469 89.0769 286.175 81.8103 281.455C73.4236 276.135 71.4503 265.789 68.1969 257.149C64.3036 247.255 62.2636 236.255 55.1303 228.002C51.4369 230.615 48.9703 234.455 47.3303 238.602C39.1836 258.082 38.3836 279.455 35.4636 300.095C34.3436 307.269 33.3569 315.469 27.2903 320.335C23.5836 324.042 17.8903 324.162 13.1036 323.055C6.91693 320.842 4.09027 314.255 3.33027 308.189C-0.26973 282.682 0.836934 256.815 1.31693 231.149C3.09027 220.095 1.35694 208.735 3.79694 197.775C4.3836 193.615 8.15694 190.189 12.3969 190.175C16.7569 189.695 20.1569 193.495 21.7169 197.189C26.6503 209.122 26.5836 222.269 28.6636 234.829C32.9436 221.069 34.9703 206.442 41.7569 193.562Z" fill="#1E7B3E"/>
<path d="M417.37 197.789C418.397 190.189 424.344 182.789 432.357 182.269C440.05 182.429 446.89 189.642 446.53 197.362C447.277 217.495 442.45 237.309 442.61 257.429C451.69 254.229 458.517 246.802 467.544 243.495C471.29 242.749 476.117 242.415 478.597 245.989C481.637 248.855 482.077 253.709 480.05 257.282C475.97 266.202 467.037 271.162 460.944 278.469C467.064 282.469 474.317 285.069 479.33 290.535C483.45 294.642 479.504 302.789 473.73 302.109C462.25 301.269 453.17 293.349 443.477 288.015C443.424 296.122 445.877 304.095 444.957 312.215C444.384 317.589 439.53 322.935 433.797 322.229C426.81 322.295 422.25 315.709 419.784 309.935C409.49 283.989 410.57 255.415 413.224 228.149C414.464 218.002 415.81 207.882 417.37 197.789Z" fill="#1E7B3E"/>
<path d="M630.184 185.709C634.73 183.615 640.304 185.349 643.237 189.295C647.024 193.749 645.57 200.015 645.064 205.295C643.13 217.455 639.744 229.469 639.757 241.869C647.424 242.415 656.397 240.189 662.73 245.749C667.517 249.482 667.29 257.349 662.65 261.109C656.717 266.309 648.17 265.629 640.81 266.282C640.104 275.762 641.464 285.695 646.957 293.682C650.384 299.109 656.29 303.015 657.984 309.469C659.73 317.122 651.917 324.215 644.504 323.429C635.69 322.375 628.21 316.242 623.65 308.855C616.237 296.962 613.744 282.775 612.77 269.002C607.317 268.909 601.837 269.309 596.41 268.615C590.517 266.655 586.997 258.762 590.81 253.402C595.184 245.975 604.97 247.815 612.024 245.175C614.117 229.522 614.904 213.522 619.717 198.375C621.477 193.095 624.61 187.589 630.184 185.709Z" fill="#1E7B3E"/>
<path d="M234.384 214.269C243.477 213.095 253.104 213.642 261.37 217.935C268.317 221.029 273.077 227.175 277.464 233.122C282.17 230.309 288.504 228.629 293.117 232.615C296.597 234.762 295.957 239.202 295.464 242.655C291.29 261.735 287.357 281.295 289.477 300.909C290.17 305.829 293.05 310.042 294.344 314.775C294.424 318.629 290.984 321.775 287.664 323.215C280.85 325.095 273.584 321.575 269.97 315.682C262.344 304.002 262.45 289.402 262.33 275.962C249.29 288.415 238.517 303.615 222.757 312.935C214.49 317.882 203.357 318.722 195.037 313.495C186.784 308.655 181.904 299.575 179.864 290.469C176.944 277.935 181.17 265.202 186.05 253.749C194.81 233.949 213.45 219.269 234.384 214.269ZM219.597 258.002C212.077 267.255 207.304 279.389 209.224 291.429C210.224 292.842 211.744 294.575 213.704 293.975C219.064 292.829 223.49 289.322 227.904 286.269C240.784 277.055 250.784 264.655 261.717 253.362C257.037 247.322 249.757 242.522 241.824 243.455C232.65 244.615 225.17 251.002 219.597 258.002Z" fill="#1E7B3E"/>
<path d="M493.744 262.055C497.744 237.909 521.197 218.215 545.77 219.349C555.81 219.615 565.85 225.655 569.437 235.255C572.41 243.629 569.97 253.255 564.144 259.829C554.09 271.642 537.717 274.349 523.09 275.682C524.077 281.215 527.904 286.429 533.797 287.229C543.424 288.069 551.73 282.335 560.157 278.655C565.13 277.255 571.624 276.895 575.304 281.255C579.49 285.082 579.45 291.482 577.93 296.509C574.37 304.549 566.557 309.869 558.53 312.815C544.704 317.442 528.757 318.855 515.53 311.669C498.384 302.282 490.384 280.789 493.744 262.055ZM537.064 241.042C530.064 245.229 523.024 251.815 522.17 260.362C531.824 260.909 542.717 260.855 550.53 254.282C553.597 251.589 557.184 247.362 555.25 243.069C551.37 237.149 542.624 238.615 537.064 241.042Z" fill="#1E7B3E"/>
<path d="M351.957 225.082C359.21 220.415 368.397 219.442 376.677 221.522C392.317 225.815 403.637 242.562 400.557 258.709C399.45 263.309 396.717 269.189 391.157 269.082C387.277 269.069 382.17 269.935 379.65 266.189C376.65 261.135 376.544 254.855 373.17 249.962C371.104 246.655 367.397 243.869 363.304 244.615C356.837 245.602 352.717 251.855 351.13 257.762C348.144 270.309 348.904 283.375 350.237 296.095C350.544 302.509 351.304 309.629 347.33 315.175C340.664 324.429 323.624 322.495 320.237 311.175C318.717 303.709 318.81 296.002 317.637 288.469C315.437 271.122 311.677 253.989 306.89 237.189C305.97 226.322 321.744 221.975 328.384 229.442C334.024 235.069 333.21 243.589 331.517 250.682C337.037 241.295 342.157 230.735 351.957 225.082Z" fill="#1E7B3E"/>
</svg>
